<?xml version="1.0" encoding="UTF-8" standalone="no"?>
<!DOCTYPE svg PUBLIC "-//W3C//DTD SVG 1.1//EN"
 "http://www.w3.org/Graphics/SVG/1.1/DTD/svg11.dtd">
<!-- Generated by graphviz version 2.40.1 (20161225.0304)
 -->
<!-- Title: Tree Pages: 1 -->
<svg width="555pt" height="314pt"
 viewBox="0.00 0.00 554.50 314.00" xmlns="http://www.w3.org/2000/svg" xmlns:xlink="http://www.w3.org/1999/xlink">
<g id="graph0" class="graph" transform="scale(1 1) rotate(0) translate(4 310)">
<title>Tree</title>
<polygon fill="#ffffff" stroke="transparent" points="-4,4 -4,-310 550.5,-310 550.5,4 -4,4"/>
<!-- 0 -->
<g id="node1" class="node">
<title>0</title>
<path fill="none" stroke="#000000" d="M369.5,-306C369.5,-306 182.5,-306 182.5,-306 176.5,-306 170.5,-300 170.5,-294 170.5,-294 170.5,-235 170.5,-235 170.5,-229 176.5,-223 182.5,-223 182.5,-223 369.5,-223 369.5,-223 375.5,-223 381.5,-229 381.5,-235 381.5,-235 381.5,-294 381.5,-294 381.5,-300 375.5,-306 369.5,-306"/>
<text text-anchor="middle" x="276" y="-290.8" font-family="Helvetica,sans-Serif" font-size="14.00" fill="#000000">C(Occupation)[T.Exec&#45;managerial] &lt;= 0.5</text>
<text text-anchor="middle" x="276" y="-275.8" font-family="Helvetica,sans-Serif" font-size="14.00" fill="#000000">gini = 0.365</text>
<text text-anchor="middle" x="276" y="-260.8" font-family="Helvetica,sans-Serif" font-size="14.00" fill="#000000">samples = 24420</text>
<text text-anchor="middle" x="276" y="-245.8" font-family="Helvetica,sans-Serif" font-size="14.00" fill="#000000">value = [18555, 5865]</text>
<text text-anchor="middle" x="276" y="-230.8" font-family="Helvetica,sans-Serif" font-size="14.00" fill="#000000">class = Target[&lt;=50K]</text>
</g>
<!-- 1 -->
<g id="node2" class="node">
<title>1</title>
<path fill="none" stroke="#000000" d="M274,-187C274,-187 102,-187 102,-187 96,-187 90,-181 90,-175 90,-175 90,-116 90,-116 90,-110 96,-104 102,-104 102,-104 274,-104 274,-104 280,-104 286,-110 286,-116 286,-116 286,-175 286,-175 286,-181 280,-187 274,-187"/>
<text text-anchor="middle" x="188" y="-171.8" font-family="Helvetica,sans-Serif" font-size="14.00" fill="#000000">C(Occupation)[T.Prof&#45;specialty] &lt;= 0.5</text>
<text text-anchor="middle" x="188" y="-156.8" font-family="Helvetica,sans-Serif" font-size="14.00" fill="#000000">gini = 0.327</text>
<text text-anchor="middle" x="188" y="-141.8" font-family="Helvetica,sans-Serif" font-size="14.00" fill="#000000">samples = 21332</text>
<text text-anchor="middle" x="188" y="-126.8" font-family="Helvetica,sans-Serif" font-size="14.00" fill="#000000">value = [16942, 4390]</text>
<text text-anchor="middle" x="188" y="-111.8" font-family="Helvetica,sans-Serif" font-size="14.00" fill="#000000">class = Target[&lt;=50K]</text>
</g>
<!-- 0&#45;&gt;1 -->
<g id="edge1" class="edge">
<title>0&#45;&gt;1</title>
<path fill="none" stroke="#000000" d="M245.2219,-222.8796C238.6949,-214.0534 231.7401,-204.6485 225.0092,-195.5466"/>
<polygon fill="#000000" stroke="#000000" points="227.6695,-193.2574 218.9095,-187.2981 222.0412,-197.4195 227.6695,-193.2574"/>
<text text-anchor="middle" x="215.2068" y="-208.3224" font-family="Helvetica,sans-Serif" font-size="14.00" fill="#000000">True</text>
</g>
<!-- 4 -->
<g id="node5" class="node">
<title>4</title>
<path fill="none" stroke="#000000" d="M412,-187C412,-187 316,-187 316,-187 310,-187 304,-181 304,-175 304,-175 304,-116 304,-116 304,-110 310,-104 316,-104 316,-104 412,-104 412,-104 418,-104 424,-110 424,-116 424,-116 424,-175 424,-175 424,-181 418,-187 412,-187"/>
<text text-anchor="middle" x="364" y="-171.8" font-family="Helvetica,sans-Serif" font-size="14.00" fill="#000000">C(Sex)[T.Male] &lt;= 0.5</text>
<text text-anchor="middle" x="364" y="-156.8" font-family="Helvetica,sans-Serif" font-size="14.00" fill="#000000">gini = 0.499</text>
<text text-anchor="middle" x="364" y="-141.8" font-family="Helvetica,sans-Serif" font-size="14.00" fill="#000000">samples = 3088</text>
<text text-anchor="middle" x="364" y="-126.8" font-family="Helvetica,sans-Serif" font-size="14.00" fill="#000000">value = [1613, 1475]</text>
<text text-anchor="middle" x="364" y="-111.8" font-family="Helvetica,sans-Serif" font-size="14.00" fill="#000000">class = Target[&lt;=50K]</text>
</g>
<!-- 0&#45;&gt;4 -->
<g id="edge4" class="edge">
<title>0&#45;&gt;4</title>
<path fill="none" stroke="#000000" d="M306.7781,-222.8796C313.3051,-214.0534 320.2599,-204.6485 326.9908,-195.5466"/>
<polygon fill="#000000" stroke="#000000" points="329.9588,-197.4195 333.0905,-187.2981 324.3305,-193.2574 329.9588,-197.4195"/>
<text text-anchor="middle" x="336.7932" y="-208.3224" font-family="Helvetica,sans-Serif" font-size="14.00" fill="#000000">False</text>
</g>
<!-- 2 -->
<g id="node3" class="node">
<title>2</title>
<path fill="none" stroke="#000000" d="M108,-68C108,-68 12,-68 12,-68 6,-68 0,-62 0,-56 0,-56 0,-12 0,-12 0,-6 6,0 12,0 12,0 108,0 108,0 114,0 120,-6 120,-12 120,-12 120,-56 120,-56 120,-62 114,-68 108,-68"/>
<text text-anchor="middle" x="60" y="-52.8" font-family="Helvetica,sans-Serif" font-size="14.00" fill="#000000">gini = 0.276</text>
<text text-anchor="middle" x="60" y="-37.8" font-family="Helvetica,sans-Serif" font-size="14.00" fill="#000000">samples = 18215</text>
<text text-anchor="middle" x="60" y="-22.8" font-family="Helvetica,sans-Serif" font-size="14.00" fill="#000000">value = [15208, 3007]</text>
<text text-anchor="middle" x="60" y="-7.8" font-family="Helvetica,sans-Serif" font-size="14.00" fill="#000000">class = Target[&lt;=50K]</text>
</g>
<!-- 1&#45;&gt;2 -->
<g id="edge2" class="edge">
<title>1&#45;&gt;2</title>
<path fill="none" stroke="#000000" d="M140.3375,-103.9815C129.4703,-94.5151 117.9295,-84.462 107.0865,-75.0168"/>
<polygon fill="#000000" stroke="#000000" points="109.1734,-72.1929 99.3341,-68.2637 104.5755,-77.4712 109.1734,-72.1929"/>
</g>
<!-- 3 -->
<g id="node4" class="node">
<title>3</title>
<path fill="none" stroke="#000000" d="M246,-68C246,-68 150,-68 150,-68 144,-68 138,-62 138,-56 138,-56 138,-12 138,-12 138,-6 144,0 150,0 150,0 246,0 246,0 252,0 258,-6 258,-12 258,-12 258,-56 258,-56 258,-62 252,-68 246,-68"/>
<text text-anchor="middle" x="198" y="-52.8" font-family="Helvetica,sans-Serif" font-size="14.00" fill="#000000">gini = 0.494</text>
<text text-anchor="middle" x="198" y="-37.8" font-family="Helvetica,sans-Serif" font-size="14.00" fill="#000000">samples = 3117</text>
<text text-anchor="middle" x="198" y="-22.8" font-family="Helvetica,sans-Serif" font-size="14.00" fill="#000000">value = [1734, 1383]</text>
<text text-anchor="middle" x="198" y="-7.8" font-family="Helvetica,sans-Serif" font-size="14.00" fill="#000000">class = Target[&lt;=50K]</text>
</g>
<!-- 1&#45;&gt;3 -->
<g id="edge3" class="edge">
<title>1&#45;&gt;3</title>
<path fill="none" stroke="#000000" d="M191.7236,-103.9815C192.4737,-95.618 193.2649,-86.7965 194.0232,-78.3409"/>
<polygon fill="#000000" stroke="#000000" points="197.5197,-78.5364 194.927,-68.2637 190.5477,-77.911 197.5197,-78.5364"/>
</g>
<!-- 5 -->
<g id="node6" class="node">
<title>5</title>
<path fill="none" stroke="#000000" d="M403,-68C403,-68 307,-68 307,-68 301,-68 295,-62 295,-56 295,-56 295,-12 295,-12 295,-6 301,0 307,0 307,0 403,0 403,0 409,0 415,-6 415,-12 415,-12 415,-56 415,-56 415,-62 409,-68 403,-68"/>
<text text-anchor="middle" x="355" y="-52.8" font-family="Helvetica,sans-Serif" font-size="14.00" fill="#000000">gini = 0.356</text>
<text text-anchor="middle" x="355" y="-37.8" font-family="Helvetica,sans-Serif" font-size="14.00" fill="#000000">samples = 890</text>
<text text-anchor="middle" x="355" y="-22.8" font-family="Helvetica,sans-Serif" font-size="14.00" fill="#000000">value = [684, 206]</text>
<text text-anchor="middle" x="355" y="-7.8" font-family="Helvetica,sans-Serif" font-size="14.00" fill="#000000">class = Target[&lt;=50K]</text>
</g>
<!-- 4&#45;&gt;5 -->
<g id="edge5" class="edge">
<title>4&#45;&gt;5</title>
<path fill="none" stroke="#000000" d="M360.6487,-103.9815C359.9737,-95.618 359.2616,-86.7965 358.5791,-78.3409"/>
<polygon fill="#000000" stroke="#000000" points="362.059,-77.9496 357.7657,-68.2637 355.0817,-78.5129 362.059,-77.9496"/>
</g>
<!-- 6 -->
<g id="node7" class="node">
<title>6</title>
<path fill="none" stroke="#000000" d="M534.5,-68C534.5,-68 445.5,-68 445.5,-68 439.5,-68 433.5,-62 433.5,-56 433.5,-56 433.5,-12 433.5,-12 433.5,-6 439.5,0 445.5,0 445.5,0 534.5,0 534.5,0 540.5,0 546.5,-6 546.5,-12 546.5,-12 546.5,-56 546.5,-56 546.5,-62 540.5,-68 534.5,-68"/>
<text text-anchor="middle" x="490" y="-52.8" font-family="Helvetica,sans-Serif" font-size="14.00" fill="#000000">gini = 0.488</text>
<text text-anchor="middle" x="490" y="-37.8" font-family="Helvetica,sans-Serif" font-size="14.00" fill="#000000">samples = 2198</text>
<text text-anchor="middle" x="490" y="-22.8" font-family="Helvetica,sans-Serif" font-size="14.00" fill="#000000">value = [929, 1269]</text>
<text text-anchor="middle" x="490" y="-7.8" font-family="Helvetica,sans-Serif" font-size="14.00" fill="#000000">class = Target[&gt;50K]</text>
</g>
<!-- 4&#45;&gt;6 -->
<g id="edge6" class="edge">
<title>4&#45;&gt;6</title>
<path fill="none" stroke="#000000" d="M410.9177,-103.9815C421.6152,-94.5151 432.9756,-84.462 443.6492,-75.0168"/>
<polygon fill="#000000" stroke="#000000" points="446.1111,-77.5118 451.2805,-68.2637 441.4722,-72.2696 446.1111,-77.5118"/>
</g>
</g>
</svg>
