<?xml version="1.0" encoding="UTF-8" standalone="no"?>
<!DOCTYPE svg PUBLIC "-//W3C//DTD SVG 1.1//EN"
 "http://www.w3.org/Graphics/SVG/1.1/DTD/svg11.dtd">
<!-- Generated by graphviz version 2.40.1 (20161225.0304)
 -->
<!-- Title: Tree Pages: 1 -->
<svg width="550pt" height="314pt"
 viewBox="0.00 0.00 550.00 314.00" xmlns="http://www.w3.org/2000/svg" xmlns:xlink="http://www.w3.org/1999/xlink">
<g id="graph0" class="graph" transform="scale(1 1) rotate(0) translate(4 310)">
<title>Tree</title>
<polygon fill="#ffffff" stroke="transparent" points="-4,4 -4,-310 546,-310 546,4 -4,4"/>
<!-- 0 -->
<g id="node1" class="node">
<title>0</title>
<path fill="none" stroke="#000000" d="M317,-306C317,-306 221,-306 221,-306 215,-306 209,-300 209,-294 209,-294 209,-235 209,-235 209,-229 215,-223 221,-223 221,-223 317,-223 317,-223 323,-223 329,-229 329,-235 329,-235 329,-294 329,-294 329,-300 323,-306 317,-306"/>
<text text-anchor="middle" x="269" y="-290.8" font-family="Helvetica,sans-Serif" font-size="14.00" fill="#000000">C(Sex)[T.Male] &lt;= 0.5</text>
<text text-anchor="middle" x="269" y="-275.8" font-family="Helvetica,sans-Serif" font-size="14.00" fill="#000000">gini = 0.365</text>
<text text-anchor="middle" x="269" y="-260.8" font-family="Helvetica,sans-Serif" font-size="14.00" fill="#000000">samples = 24420</text>
<text text-anchor="middle" x="269" y="-245.8" font-family="Helvetica,sans-Serif" font-size="14.00" fill="#000000">value = [18555, 5865]</text>
<text text-anchor="middle" x="269" y="-230.8" font-family="Helvetica,sans-Serif" font-size="14.00" fill="#000000">class = Target[&lt;=50K]</text>
</g>
<!-- 1 -->
<g id="node2" class="node">
<title>1</title>
<path fill="none" stroke="#000000" d="M260.5,-187C260.5,-187 113.5,-187 113.5,-187 107.5,-187 101.5,-181 101.5,-175 101.5,-175 101.5,-116 101.5,-116 101.5,-110 107.5,-104 113.5,-104 113.5,-104 260.5,-104 260.5,-104 266.5,-104 272.5,-110 272.5,-116 272.5,-116 272.5,-175 272.5,-175 272.5,-181 266.5,-187 260.5,-187"/>
<text text-anchor="middle" x="187" y="-171.8" font-family="Helvetica,sans-Serif" font-size="14.00" fill="#000000">C(Education)[T.Doctorate] &lt;= 0.5</text>
<text text-anchor="middle" x="187" y="-156.8" font-family="Helvetica,sans-Serif" font-size="14.00" fill="#000000">gini = 0.197</text>
<text text-anchor="middle" x="187" y="-141.8" font-family="Helvetica,sans-Serif" font-size="14.00" fill="#000000">samples = 8035</text>
<text text-anchor="middle" x="187" y="-126.8" font-family="Helvetica,sans-Serif" font-size="14.00" fill="#000000">value = [7143, 892]</text>
<text text-anchor="middle" x="187" y="-111.8" font-family="Helvetica,sans-Serif" font-size="14.00" fill="#000000">class = Target[&lt;=50K]</text>
</g>
<!-- 0&#45;&gt;1 -->
<g id="edge1" class="edge">
<title>0&#45;&gt;1</title>
<path fill="none" stroke="#000000" d="M240.3204,-222.8796C234.2385,-214.0534 227.7578,-204.6485 221.4859,-195.5466"/>
<polygon fill="#000000" stroke="#000000" points="224.3582,-193.5465 215.802,-187.2981 218.5941,-197.5184 224.3582,-193.5465"/>
<text text-anchor="middle" x="211.2761" y="-208.185" font-family="Helvetica,sans-Serif" font-size="14.00" fill="#000000">True</text>
</g>
<!-- 4 -->
<g id="node5" class="node">
<title>4</title>
<path fill="none" stroke="#000000" d="M399,-187C399,-187 303,-187 303,-187 297,-187 291,-181 291,-175 291,-175 291,-116 291,-116 291,-110 297,-104 303,-104 303,-104 399,-104 399,-104 405,-104 411,-110 411,-116 411,-116 411,-175 411,-175 411,-181 405,-187 399,-187"/>
<text text-anchor="middle" x="351" y="-171.8" font-family="Helvetica,sans-Serif" font-size="14.00" fill="#000000">Age &lt;= 29.5</text>
<text text-anchor="middle" x="351" y="-156.8" font-family="Helvetica,sans-Serif" font-size="14.00" fill="#000000">gini = 0.423</text>
<text text-anchor="middle" x="351" y="-141.8" font-family="Helvetica,sans-Serif" font-size="14.00" fill="#000000">samples = 16385</text>
<text text-anchor="middle" x="351" y="-126.8" font-family="Helvetica,sans-Serif" font-size="14.00" fill="#000000">value = [11412, 4973]</text>
<text text-anchor="middle" x="351" y="-111.8" font-family="Helvetica,sans-Serif" font-size="14.00" fill="#000000">class = Target[&lt;=50K]</text>
</g>
<!-- 0&#45;&gt;4 -->
<g id="edge4" class="edge">
<title>0&#45;&gt;4</title>
<path fill="none" stroke="#000000" d="M297.6796,-222.8796C303.7615,-214.0534 310.2422,-204.6485 316.5141,-195.5466"/>
<polygon fill="#000000" stroke="#000000" points="319.4059,-197.5184 322.198,-187.2981 313.6418,-193.5465 319.4059,-197.5184"/>
<text text-anchor="middle" x="326.7239" y="-208.185" font-family="Helvetica,sans-Serif" font-size="14.00" fill="#000000">False</text>
</g>
<!-- 2 -->
<g id="node3" class="node">
<title>2</title>
<path fill="none" stroke="#000000" d="M108,-68C108,-68 12,-68 12,-68 6,-68 0,-62 0,-56 0,-56 0,-12 0,-12 0,-6 6,0 12,0 12,0 108,0 108,0 114,0 120,-6 120,-12 120,-12 120,-56 120,-56 120,-62 114,-68 108,-68"/>
<text text-anchor="middle" x="60" y="-52.8" font-family="Helvetica,sans-Serif" font-size="14.00" fill="#000000">gini = 0.191</text>
<text text-anchor="middle" x="60" y="-37.8" font-family="Helvetica,sans-Serif" font-size="14.00" fill="#000000">samples = 7970</text>
<text text-anchor="middle" x="60" y="-22.8" font-family="Helvetica,sans-Serif" font-size="14.00" fill="#000000">value = [7116, 854]</text>
<text text-anchor="middle" x="60" y="-7.8" font-family="Helvetica,sans-Serif" font-size="14.00" fill="#000000">class = Target[&lt;=50K]</text>
</g>
<!-- 1&#45;&gt;2 -->
<g id="edge2" class="edge">
<title>1&#45;&gt;2</title>
<path fill="none" stroke="#000000" d="M139.7099,-103.9815C128.9275,-94.5151 117.477,-84.462 106.7187,-75.0168"/>
<polygon fill="#000000" stroke="#000000" points="108.8507,-72.2311 99.0268,-68.2637 104.2324,-77.4915 108.8507,-72.2311"/>
</g>
<!-- 3 -->
<g id="node4" class="node">
<title>3</title>
<path fill="none" stroke="#000000" d="M239.5,-68C239.5,-68 150.5,-68 150.5,-68 144.5,-68 138.5,-62 138.5,-56 138.5,-56 138.5,-12 138.5,-12 138.5,-6 144.5,0 150.5,0 150.5,0 239.5,0 239.5,0 245.5,0 251.5,-6 251.5,-12 251.5,-12 251.5,-56 251.5,-56 251.5,-62 245.5,-68 239.5,-68"/>
<text text-anchor="middle" x="195" y="-52.8" font-family="Helvetica,sans-Serif" font-size="14.00" fill="#000000">gini = 0.486</text>
<text text-anchor="middle" x="195" y="-37.8" font-family="Helvetica,sans-Serif" font-size="14.00" fill="#000000">samples = 65</text>
<text text-anchor="middle" x="195" y="-22.8" font-family="Helvetica,sans-Serif" font-size="14.00" fill="#000000">value = [27, 38]</text>
<text text-anchor="middle" x="195" y="-7.8" font-family="Helvetica,sans-Serif" font-size="14.00" fill="#000000">class = Target[&gt;50K]</text>
</g>
<!-- 1&#45;&gt;3 -->
<g id="edge3" class="edge">
<title>1&#45;&gt;3</title>
<path fill="none" stroke="#000000" d="M189.9789,-103.9815C190.579,-95.618 191.2119,-86.7965 191.8186,-78.3409"/>
<polygon fill="#000000" stroke="#000000" points="195.3169,-78.4885 192.5416,-68.2637 188.3349,-77.9875 195.3169,-78.4885"/>
</g>
<!-- 5 -->
<g id="node6" class="node">
<title>5</title>
<path fill="none" stroke="#000000" d="M392,-68C392,-68 296,-68 296,-68 290,-68 284,-62 284,-56 284,-56 284,-12 284,-12 284,-6 290,0 296,0 296,0 392,0 392,0 398,0 404,-6 404,-12 404,-12 404,-56 404,-56 404,-62 398,-68 392,-68"/>
<text text-anchor="middle" x="344" y="-52.8" font-family="Helvetica,sans-Serif" font-size="14.00" fill="#000000">gini = 0.124</text>
<text text-anchor="middle" x="344" y="-37.8" font-family="Helvetica,sans-Serif" font-size="14.00" fill="#000000">samples = 4316</text>
<text text-anchor="middle" x="344" y="-22.8" font-family="Helvetica,sans-Serif" font-size="14.00" fill="#000000">value = [4029, 287]</text>
<text text-anchor="middle" x="344" y="-7.8" font-family="Helvetica,sans-Serif" font-size="14.00" fill="#000000">class = Target[&lt;=50K]</text>
</g>
<!-- 4&#45;&gt;5 -->
<g id="edge5" class="edge">
<title>4&#45;&gt;5</title>
<path fill="none" stroke="#000000" d="M348.3935,-103.9815C347.8684,-95.618 347.3146,-86.7965 346.7837,-78.3409"/>
<polygon fill="#000000" stroke="#000000" points="350.2709,-78.0247 346.1511,-68.2637 343.2846,-78.4634 350.2709,-78.0247"/>
</g>
<!-- 6 -->
<g id="node7" class="node">
<title>6</title>
<path fill="none" stroke="#000000" d="M530,-68C530,-68 434,-68 434,-68 428,-68 422,-62 422,-56 422,-56 422,-12 422,-12 422,-6 428,0 434,0 434,0 530,0 530,0 536,0 542,-6 542,-12 542,-12 542,-56 542,-56 542,-62 536,-68 530,-68"/>
<text text-anchor="middle" x="482" y="-52.8" font-family="Helvetica,sans-Serif" font-size="14.00" fill="#000000">gini = 0.475</text>
<text text-anchor="middle" x="482" y="-37.8" font-family="Helvetica,sans-Serif" font-size="14.00" fill="#000000">samples = 12069</text>
<text text-anchor="middle" x="482" y="-22.8" font-family="Helvetica,sans-Serif" font-size="14.00" fill="#000000">value = [7383, 4686]</text>
<text text-anchor="middle" x="482" y="-7.8" font-family="Helvetica,sans-Serif" font-size="14.00" fill="#000000">class = Target[&lt;=50K]</text>
</g>
<!-- 4&#45;&gt;6 -->
<g id="edge6" class="edge">
<title>4&#45;&gt;6</title>
<path fill="none" stroke="#000000" d="M399.7796,-103.9815C410.9015,-94.5151 422.7128,-84.462 433.8099,-75.0168"/>
<polygon fill="#000000" stroke="#000000" points="436.3975,-77.4105 441.744,-68.2637 431.8604,-72.08 436.3975,-77.4105"/>
</g>
</g>
</svg>
