<?xml version="1.0" encoding="UTF-8" standalone="no"?>
<!DOCTYPE svg PUBLIC "-//W3C//DTD SVG 1.1//EN"
 "http://www.w3.org/Graphics/SVG/1.1/DTD/svg11.dtd">
<!-- Generated by graphviz version 2.40.1 (20161225.0304)
 -->
<!-- Title: Tree Pages: 1 -->
<svg width="1846pt" height="673pt"
 viewBox="0.00 0.00 1846.00 673.00" xmlns="http://www.w3.org/2000/svg" xmlns:xlink="http://www.w3.org/1999/xlink">
<g id="graph0" class="graph" transform="scale(1 1) rotate(0) translate(4 669)">
<title>Tree</title>
<polygon fill="#ffffff" stroke="transparent" points="-4,4 -4,-669 1842,-669 1842,4 -4,4"/>
<!-- 0 -->
<g id="node1" class="node">
<title>0</title>
<path fill="none" stroke="#000000" d="M1014,-665C1014,-665 824,-665 824,-665 818,-665 812,-659 812,-653 812,-653 812,-534 812,-534 812,-528 818,-522 824,-522 824,-522 1014,-522 1014,-522 1020,-522 1026,-528 1026,-534 1026,-534 1026,-653 1026,-653 1026,-659 1020,-665 1014,-665"/>
<text text-anchor="middle" x="919" y="-649.8" font-family="Helvetica,sans-Serif" font-size="14.00" fill="#000000">C(Post_month)[T.6] &lt;= 0.5</text>
<text text-anchor="middle" x="919" y="-634.8" font-family="Helvetica,sans-Serif" font-size="14.00" fill="#000000">gini = 0.982</text>
<text text-anchor="middle" x="919" y="-619.8" font-family="Helvetica,sans-Serif" font-size="14.00" fill="#000000">samples = 371</text>
<text text-anchor="middle" x="919" y="-604.8" font-family="Helvetica,sans-Serif" font-size="14.00" fill="#000000">value = [3, 2, 5, 5, 4, 1, 1, 1, 1, 1, 1, 1, 1, 1</text>
<text text-anchor="middle" x="919" y="-589.8" font-family="Helvetica,sans-Serif" font-size="14.00" fill="#000000">1, 1, 1, 1, 1, 1, 1, 1, 1, 1, 5, 2, 10, 5</text>
<text text-anchor="middle" x="919" y="-574.8" font-family="Helvetica,sans-Serif" font-size="14.00" fill="#000000">5, 4, 10, 8, 5, 4, 1, 2, 6, 6, 5, 6, 4, 2</text>
<text text-anchor="middle" x="919" y="-559.8" font-family="Helvetica,sans-Serif" font-size="14.00" fill="#000000">8, 14, 7, 4, 3, 4, 1, 7, 13, 6, 3, 6, 3, 3</text>
<text text-anchor="middle" x="919" y="-544.8" font-family="Helvetica,sans-Serif" font-size="14.00" fill="#000000">5, 7, 5, 1, 4, 3, 4, 9, 3, 3, 3, 7, 7, 12</text>
<text text-anchor="middle" x="919" y="-529.8" font-family="Helvetica,sans-Serif" font-size="14.00" fill="#000000">5, 4, 7, 7, 10, 6, 8, 6, 6, 8, 2, 10, 9]</text>
</g>
<!-- 1 -->
<g id="node2" class="node">
<title>1</title>
<path fill="none" stroke="#000000" d="M782,-486C782,-486 592,-486 592,-486 586,-486 580,-480 580,-474 580,-474 580,-355 580,-355 580,-349 586,-343 592,-343 592,-343 782,-343 782,-343 788,-343 794,-349 794,-355 794,-355 794,-474 794,-474 794,-480 788,-486 782,-486"/>
<text text-anchor="middle" x="687" y="-470.8" font-family="Helvetica,sans-Serif" font-size="14.00" fill="#000000">C(Post_month)[T.12] &lt;= 0.5</text>
<text text-anchor="middle" x="687" y="-455.8" font-family="Helvetica,sans-Serif" font-size="14.00" fill="#000000">gini = 0.981</text>
<text text-anchor="middle" x="687" y="-440.8" font-family="Helvetica,sans-Serif" font-size="14.00" fill="#000000">samples = 333</text>
<text text-anchor="middle" x="687" y="-425.8" font-family="Helvetica,sans-Serif" font-size="14.00" fill="#000000">value = [3, 2, 5, 5, 4, 1, 1, 1, 1, 1, 1, 1, 1, 1</text>
<text text-anchor="middle" x="687" y="-410.8" font-family="Helvetica,sans-Serif" font-size="14.00" fill="#000000">1, 1, 1, 1, 1, 1, 1, 1, 1, 1, 5, 2, 10, 5</text>
<text text-anchor="middle" x="687" y="-395.8" font-family="Helvetica,sans-Serif" font-size="14.00" fill="#000000">5, 4, 10, 8, 5, 4, 1, 2, 6, 6, 5, 6, 4, 1</text>
<text text-anchor="middle" x="687" y="-380.8" font-family="Helvetica,sans-Serif" font-size="14.00" fill="#000000">0, 0, 0, 0, 0, 3, 1, 7, 13, 6, 3, 6, 3, 3</text>
<text text-anchor="middle" x="687" y="-365.8" font-family="Helvetica,sans-Serif" font-size="14.00" fill="#000000">5, 7, 5, 1, 4, 3, 4, 9, 3, 3, 3, 7, 7, 12</text>
<text text-anchor="middle" x="687" y="-350.8" font-family="Helvetica,sans-Serif" font-size="14.00" fill="#000000">5, 4, 7, 7, 10, 6, 8, 6, 6, 8, 2, 10, 9]</text>
</g>
<!-- 0&#45;&gt;1 -->
<g id="edge1" class="edge">
<title>0&#45;&gt;1</title>
<path fill="none" stroke="#000000" d="M826.3073,-521.9828C813.6603,-512.225 800.6279,-502.1698 787.8452,-492.3073"/>
<polygon fill="#000000" stroke="#000000" points="789.9795,-489.5334 779.9241,-486.1958 785.7035,-495.0755 789.9795,-489.5334"/>
<text text-anchor="middle" x="783.1215" y="-507.2905" font-family="Helvetica,sans-Serif" font-size="14.00" fill="#000000">True</text>
</g>
<!-- 8 -->
<g id="node9" class="node">
<title>8</title>
<path fill="none" stroke="#000000" d="M1246,-486C1246,-486 1056,-486 1056,-486 1050,-486 1044,-480 1044,-474 1044,-474 1044,-355 1044,-355 1044,-349 1050,-343 1056,-343 1056,-343 1246,-343 1246,-343 1252,-343 1258,-349 1258,-355 1258,-355 1258,-474 1258,-474 1258,-480 1252,-486 1246,-486"/>
<text text-anchor="middle" x="1151" y="-470.8" font-family="Helvetica,sans-Serif" font-size="14.00" fill="#000000">C(Category)[T.3] &lt;= 0.5</text>
<text text-anchor="middle" x="1151" y="-455.8" font-family="Helvetica,sans-Serif" font-size="14.00" fill="#000000">gini = 0.767</text>
<text text-anchor="middle" x="1151" y="-440.8" font-family="Helvetica,sans-Serif" font-size="14.00" fill="#000000">samples = 38</text>
<text text-anchor="middle" x="1151" y="-425.8" font-family="Helvetica,sans-Serif" font-size="14.00" fill="#000000">value = [0, 0, 0, 0, 0, 0, 0, 0, 0, 0, 0, 0, 0, 0</text>
<text text-anchor="middle" x="1151" y="-410.8" font-family="Helvetica,sans-Serif" font-size="14.00" fill="#000000">0, 0, 0, 0, 0, 0, 0, 0, 0, 0, 0, 0, 0, 0</text>
<text text-anchor="middle" x="1151" y="-395.8" font-family="Helvetica,sans-Serif" font-size="14.00" fill="#000000">0, 0, 0, 0, 0, 0, 0, 0, 0, 0, 0, 0, 0, 1</text>
<text text-anchor="middle" x="1151" y="-380.8" font-family="Helvetica,sans-Serif" font-size="14.00" fill="#000000">8, 14, 7, 4, 3, 1, 0, 0, 0, 0, 0, 0, 0, 0</text>
<text text-anchor="middle" x="1151" y="-365.8" font-family="Helvetica,sans-Serif" font-size="14.00" fill="#000000">0, 0, 0, 0, 0, 0, 0, 0, 0, 0, 0, 0, 0, 0</text>
<text text-anchor="middle" x="1151" y="-350.8" font-family="Helvetica,sans-Serif" font-size="14.00" fill="#000000">0, 0, 0, 0, 0, 0, 0, 0, 0, 0, 0, 0, 0]</text>
</g>
<!-- 0&#45;&gt;8 -->
<g id="edge8" class="edge">
<title>0&#45;&gt;8</title>
<path fill="none" stroke="#000000" d="M1011.6927,-521.9828C1024.3397,-512.225 1037.3721,-502.1698 1050.1548,-492.3073"/>
<polygon fill="#000000" stroke="#000000" points="1052.2965,-495.0755 1058.0759,-486.1958 1048.0205,-489.5334 1052.2965,-495.0755"/>
<text text-anchor="middle" x="1054.8785" y="-507.2905" font-family="Helvetica,sans-Serif" font-size="14.00" fill="#000000">False</text>
</g>
<!-- 2 -->
<g id="node3" class="node">
<title>2</title>
<path fill="none" stroke="#000000" d="M434,-307C434,-307 244,-307 244,-307 238,-307 232,-301 232,-295 232,-295 232,-176 232,-176 232,-170 238,-164 244,-164 244,-164 434,-164 434,-164 440,-164 446,-170 446,-176 446,-176 446,-295 446,-295 446,-301 440,-307 434,-307"/>
<text text-anchor="middle" x="339" y="-291.8" font-family="Helvetica,sans-Serif" font-size="14.00" fill="#000000">C(Post_month)[T.7] &lt;= 0.5</text>
<text text-anchor="middle" x="339" y="-276.8" font-family="Helvetica,sans-Serif" font-size="14.00" fill="#000000">gini = 0.979</text>
<text text-anchor="middle" x="339" y="-261.8" font-family="Helvetica,sans-Serif" font-size="14.00" fill="#000000">samples = 299</text>
<text text-anchor="middle" x="339" y="-246.8" font-family="Helvetica,sans-Serif" font-size="14.00" fill="#000000">value = [3, 2, 5, 5, 4, 1, 1, 1, 1, 1, 1, 1, 1, 1</text>
<text text-anchor="middle" x="339" y="-231.8" font-family="Helvetica,sans-Serif" font-size="14.00" fill="#000000">1, 1, 1, 1, 1, 1, 1, 1, 1, 1, 5, 2, 10, 5</text>
<text text-anchor="middle" x="339" y="-216.8" font-family="Helvetica,sans-Serif" font-size="14.00" fill="#000000">5, 4, 10, 8, 5, 4, 1, 2, 6, 6, 5, 6, 4, 1</text>
<text text-anchor="middle" x="339" y="-201.8" font-family="Helvetica,sans-Serif" font-size="14.00" fill="#000000">0, 0, 0, 0, 0, 3, 1, 7, 13, 6, 3, 6, 3, 3</text>
<text text-anchor="middle" x="339" y="-186.8" font-family="Helvetica,sans-Serif" font-size="14.00" fill="#000000">5, 7, 5, 1, 4, 3, 4, 9, 3, 3, 3, 7, 7, 12</text>
<text text-anchor="middle" x="339" y="-171.8" font-family="Helvetica,sans-Serif" font-size="14.00" fill="#000000">5, 4, 7, 7, 10, 6, 8, 6, 1, 0, 0, 0, 0]</text>
</g>
<!-- 1&#45;&gt;2 -->
<g id="edge2" class="edge">
<title>1&#45;&gt;2</title>
<path fill="none" stroke="#000000" d="M579.749,-359.3335C540.2949,-339.0396 495.444,-315.9698 455.2353,-295.2877"/>
<polygon fill="#000000" stroke="#000000" points="456.6899,-292.1 446.1963,-290.6383 453.488,-298.3249 456.6899,-292.1"/>
</g>
<!-- 5 -->
<g id="node6" class="node">
<title>5</title>
<path fill="none" stroke="#000000" d="M782,-307C782,-307 592,-307 592,-307 586,-307 580,-301 580,-295 580,-295 580,-176 580,-176 580,-170 586,-164 592,-164 592,-164 782,-164 782,-164 788,-164 794,-170 794,-176 794,-176 794,-295 794,-295 794,-301 788,-307 782,-307"/>
<text text-anchor="middle" x="687" y="-291.8" font-family="Helvetica,sans-Serif" font-size="14.00" fill="#000000">C(Category)[T.2] &lt;= 0.5</text>
<text text-anchor="middle" x="687" y="-276.8" font-family="Helvetica,sans-Serif" font-size="14.00" fill="#000000">gini = 0.763</text>
<text text-anchor="middle" x="687" y="-261.8" font-family="Helvetica,sans-Serif" font-size="14.00" fill="#000000">samples = 34</text>
<text text-anchor="middle" x="687" y="-246.8" font-family="Helvetica,sans-Serif" font-size="14.00" fill="#000000">value = [0, 0, 0, 0, 0, 0, 0, 0, 0, 0, 0, 0, 0, 0</text>
<text text-anchor="middle" x="687" y="-231.8" font-family="Helvetica,sans-Serif" font-size="14.00" fill="#000000">0, 0, 0, 0, 0, 0, 0, 0, 0, 0, 0, 0, 0, 0</text>
<text text-anchor="middle" x="687" y="-216.8" font-family="Helvetica,sans-Serif" font-size="14.00" fill="#000000">0, 0, 0, 0, 0, 0, 0, 0, 0, 0, 0, 0, 0, 0</text>
<text text-anchor="middle" x="687" y="-201.8" font-family="Helvetica,sans-Serif" font-size="14.00" fill="#000000">0, 0, 0, 0, 0, 0, 0, 0, 0, 0, 0, 0, 0, 0</text>
<text text-anchor="middle" x="687" y="-186.8" font-family="Helvetica,sans-Serif" font-size="14.00" fill="#000000">0, 0, 0, 0, 0, 0, 0, 0, 0, 0, 0, 0, 0, 0</text>
<text text-anchor="middle" x="687" y="-171.8" font-family="Helvetica,sans-Serif" font-size="14.00" fill="#000000">0, 0, 0, 0, 0, 0, 0, 0, 5, 8, 2, 10, 9]</text>
</g>
<!-- 1&#45;&gt;5 -->
<g id="edge5" class="edge">
<title>1&#45;&gt;5</title>
<path fill="none" stroke="#000000" d="M687,-342.9828C687,-334.5138 687,-325.8207 687,-317.224"/>
<polygon fill="#000000" stroke="#000000" points="690.5001,-317.1957 687,-307.1958 683.5001,-317.1958 690.5001,-317.1957"/>
</g>
<!-- 3 -->
<g id="node4" class="node">
<title>3</title>
<path fill="none" stroke="#000000" d="M202,-128C202,-128 12,-128 12,-128 6,-128 0,-122 0,-116 0,-116 0,-12 0,-12 0,-6 6,0 12,0 12,0 202,0 202,0 208,0 214,-6 214,-12 214,-12 214,-116 214,-116 214,-122 208,-128 202,-128"/>
<text text-anchor="middle" x="107" y="-112.8" font-family="Helvetica,sans-Serif" font-size="14.00" fill="#000000">gini = 0.977</text>
<text text-anchor="middle" x="107" y="-97.8" font-family="Helvetica,sans-Serif" font-size="14.00" fill="#000000">samples = 257</text>
<text text-anchor="middle" x="107" y="-82.8" font-family="Helvetica,sans-Serif" font-size="14.00" fill="#000000">value = [3, 2, 5, 5, 4, 1, 1, 1, 1, 1, 1, 1, 1, 1</text>
<text text-anchor="middle" x="107" y="-67.8" font-family="Helvetica,sans-Serif" font-size="14.00" fill="#000000">1, 1, 1, 1, 1, 1, 1, 1, 1, 1, 5, 2, 10, 5</text>
<text text-anchor="middle" x="107" y="-52.8" font-family="Helvetica,sans-Serif" font-size="14.00" fill="#000000">5, 4, 10, 8, 5, 4, 1, 2, 6, 6, 5, 6, 4, 1</text>
<text text-anchor="middle" x="107" y="-37.8" font-family="Helvetica,sans-Serif" font-size="14.00" fill="#000000">0, 0, 0, 0, 0, 0, 0, 0, 0, 0, 0, 0, 0, 3</text>
<text text-anchor="middle" x="107" y="-22.8" font-family="Helvetica,sans-Serif" font-size="14.00" fill="#000000">5, 7, 5, 1, 4, 3, 4, 9, 3, 3, 3, 7, 7, 12</text>
<text text-anchor="middle" x="107" y="-7.8" font-family="Helvetica,sans-Serif" font-size="14.00" fill="#000000">5, 4, 7, 7, 10, 6, 8, 6, 1, 0, 0, 0, 0]</text>
</g>
<!-- 2&#45;&gt;3 -->
<g id="edge3" class="edge">
<title>2&#45;&gt;3</title>
<path fill="none" stroke="#000000" d="M241.9554,-163.7623C228.6907,-153.9567 215.0862,-143.8999 201.8611,-134.1236"/>
<polygon fill="#000000" stroke="#000000" points="203.804,-131.2074 193.6821,-128.0775 199.6429,-136.8364 203.804,-131.2074"/>
</g>
<!-- 4 -->
<g id="node5" class="node">
<title>4</title>
<path fill="none" stroke="#000000" d="M434,-128C434,-128 244,-128 244,-128 238,-128 232,-122 232,-116 232,-116 232,-12 232,-12 232,-6 238,0 244,0 244,0 434,0 434,0 440,0 446,-6 446,-12 446,-12 446,-116 446,-116 446,-122 440,-128 434,-128"/>
<text text-anchor="middle" x="339" y="-112.8" font-family="Helvetica,sans-Serif" font-size="14.00" fill="#000000">gini = 0.82</text>
<text text-anchor="middle" x="339" y="-97.8" font-family="Helvetica,sans-Serif" font-size="14.00" fill="#000000">samples = 42</text>
<text text-anchor="middle" x="339" y="-82.8" font-family="Helvetica,sans-Serif" font-size="14.00" fill="#000000">value = [0, 0, 0, 0, 0, 0, 0, 0, 0, 0, 0, 0, 0, 0</text>
<text text-anchor="middle" x="339" y="-67.8" font-family="Helvetica,sans-Serif" font-size="14.00" fill="#000000">0, 0, 0, 0, 0, 0, 0, 0, 0, 0, 0, 0, 0, 0</text>
<text text-anchor="middle" x="339" y="-52.8" font-family="Helvetica,sans-Serif" font-size="14.00" fill="#000000">0, 0, 0, 0, 0, 0, 0, 0, 0, 0, 0, 0, 0, 0</text>
<text text-anchor="middle" x="339" y="-37.8" font-family="Helvetica,sans-Serif" font-size="14.00" fill="#000000">0, 0, 0, 0, 0, 3, 1, 7, 13, 6, 3, 6, 3, 0</text>
<text text-anchor="middle" x="339" y="-22.8" font-family="Helvetica,sans-Serif" font-size="14.00" fill="#000000">0, 0, 0, 0, 0, 0, 0, 0, 0, 0, 0, 0, 0, 0</text>
<text text-anchor="middle" x="339" y="-7.8" font-family="Helvetica,sans-Serif" font-size="14.00" fill="#000000">0, 0, 0, 0, 0, 0, 0, 0, 0, 0, 0, 0, 0]</text>
</g>
<!-- 2&#45;&gt;4 -->
<g id="edge4" class="edge">
<title>2&#45;&gt;4</title>
<path fill="none" stroke="#000000" d="M339,-163.7623C339,-155.3443 339,-146.7412 339,-138.2893"/>
<polygon fill="#000000" stroke="#000000" points="342.5001,-138.0774 339,-128.0775 335.5001,-138.0775 342.5001,-138.0774"/>
</g>
<!-- 6 -->
<g id="node7" class="node">
<title>6</title>
<path fill="none" stroke="#000000" d="M666,-128C666,-128 476,-128 476,-128 470,-128 464,-122 464,-116 464,-116 464,-12 464,-12 464,-6 470,0 476,0 476,0 666,0 666,0 672,0 678,-6 678,-12 678,-12 678,-116 678,-116 678,-122 672,-128 666,-128"/>
<text text-anchor="middle" x="571" y="-112.8" font-family="Helvetica,sans-Serif" font-size="14.00" fill="#000000">gini = 0.75</text>
<text text-anchor="middle" x="571" y="-97.8" font-family="Helvetica,sans-Serif" font-size="14.00" fill="#000000">samples = 20</text>
<text text-anchor="middle" x="571" y="-82.8" font-family="Helvetica,sans-Serif" font-size="14.00" fill="#000000">value = [0, 0, 0, 0, 0, 0, 0, 0, 0, 0, 0, 0, 0, 0</text>
<text text-anchor="middle" x="571" y="-67.8" font-family="Helvetica,sans-Serif" font-size="14.00" fill="#000000">0, 0, 0, 0, 0, 0, 0, 0, 0, 0, 0, 0, 0, 0</text>
<text text-anchor="middle" x="571" y="-52.8" font-family="Helvetica,sans-Serif" font-size="14.00" fill="#000000">0, 0, 0, 0, 0, 0, 0, 0, 0, 0, 0, 0, 0, 0</text>
<text text-anchor="middle" x="571" y="-37.8" font-family="Helvetica,sans-Serif" font-size="14.00" fill="#000000">0, 0, 0, 0, 0, 0, 0, 0, 0, 0, 0, 0, 0, 0</text>
<text text-anchor="middle" x="571" y="-22.8" font-family="Helvetica,sans-Serif" font-size="14.00" fill="#000000">0, 0, 0, 0, 0, 0, 0, 0, 0, 0, 0, 0, 0, 0</text>
<text text-anchor="middle" x="571" y="-7.8" font-family="Helvetica,sans-Serif" font-size="14.00" fill="#000000">0, 0, 0, 0, 0, 0, 0, 0, 5, 7, 1, 4, 3]</text>
</g>
<!-- 5&#45;&gt;6 -->
<g id="edge6" class="edge">
<title>5&#45;&gt;6</title>
<path fill="none" stroke="#000000" d="M638.4777,-163.7623C632.4085,-154.7893 626.197,-145.6059 620.1188,-136.6195"/>
<polygon fill="#000000" stroke="#000000" points="622.8428,-134.3997 614.341,-128.0775 617.0446,-138.3216 622.8428,-134.3997"/>
</g>
<!-- 7 -->
<g id="node8" class="node">
<title>7</title>
<path fill="none" stroke="#000000" d="M898,-128C898,-128 708,-128 708,-128 702,-128 696,-122 696,-116 696,-116 696,-12 696,-12 696,-6 702,0 708,0 708,0 898,0 898,0 904,0 910,-6 910,-12 910,-12 910,-116 910,-116 910,-122 904,-128 898,-128"/>
<text text-anchor="middle" x="803" y="-112.8" font-family="Helvetica,sans-Serif" font-size="14.00" fill="#000000">gini = 0.622</text>
<text text-anchor="middle" x="803" y="-97.8" font-family="Helvetica,sans-Serif" font-size="14.00" fill="#000000">samples = 14</text>
<text text-anchor="middle" x="803" y="-82.8" font-family="Helvetica,sans-Serif" font-size="14.00" fill="#000000">value = [0, 0, 0, 0, 0, 0, 0, 0, 0, 0, 0, 0, 0, 0</text>
<text text-anchor="middle" x="803" y="-67.8" font-family="Helvetica,sans-Serif" font-size="14.00" fill="#000000">0, 0, 0, 0, 0, 0, 0, 0, 0, 0, 0, 0, 0, 0</text>
<text text-anchor="middle" x="803" y="-52.8" font-family="Helvetica,sans-Serif" font-size="14.00" fill="#000000">0, 0, 0, 0, 0, 0, 0, 0, 0, 0, 0, 0, 0, 0</text>
<text text-anchor="middle" x="803" y="-37.8" font-family="Helvetica,sans-Serif" font-size="14.00" fill="#000000">0, 0, 0, 0, 0, 0, 0, 0, 0, 0, 0, 0, 0, 0</text>
<text text-anchor="middle" x="803" y="-22.8" font-family="Helvetica,sans-Serif" font-size="14.00" fill="#000000">0, 0, 0, 0, 0, 0, 0, 0, 0, 0, 0, 0, 0, 0</text>
<text text-anchor="middle" x="803" y="-7.8" font-family="Helvetica,sans-Serif" font-size="14.00" fill="#000000">0, 0, 0, 0, 0, 0, 0, 0, 0, 1, 1, 6, 6]</text>
</g>
<!-- 5&#45;&gt;7 -->
<g id="edge7" class="edge">
<title>5&#45;&gt;7</title>
<path fill="none" stroke="#000000" d="M735.5223,-163.7623C741.5915,-154.7893 747.803,-145.6059 753.8812,-136.6195"/>
<polygon fill="#000000" stroke="#000000" points="756.9554,-138.3216 759.659,-128.0775 751.1572,-134.3997 756.9554,-138.3216"/>
</g>
<!-- 9 -->
<g id="node10" class="node">
<title>9</title>
<path fill="none" stroke="#000000" d="M1246,-307C1246,-307 1056,-307 1056,-307 1050,-307 1044,-301 1044,-295 1044,-295 1044,-176 1044,-176 1044,-170 1050,-164 1056,-164 1056,-164 1246,-164 1246,-164 1252,-164 1258,-170 1258,-176 1258,-176 1258,-295 1258,-295 1258,-301 1252,-307 1246,-307"/>
<text text-anchor="middle" x="1151" y="-291.8" font-family="Helvetica,sans-Serif" font-size="14.00" fill="#000000">C(Paid)[T.1.0] &lt;= 0.5</text>
<text text-anchor="middle" x="1151" y="-276.8" font-family="Helvetica,sans-Serif" font-size="14.00" fill="#000000">gini = 0.807</text>
<text text-anchor="middle" x="1151" y="-261.8" font-family="Helvetica,sans-Serif" font-size="14.00" fill="#000000">samples = 21</text>
<text text-anchor="middle" x="1151" y="-246.8" font-family="Helvetica,sans-Serif" font-size="14.00" fill="#000000">value = [0, 0, 0, 0, 0, 0, 0, 0, 0, 0, 0, 0, 0, 0</text>
<text text-anchor="middle" x="1151" y="-231.8" font-family="Helvetica,sans-Serif" font-size="14.00" fill="#000000">0, 0, 0, 0, 0, 0, 0, 0, 0, 0, 0, 0, 0, 0</text>
<text text-anchor="middle" x="1151" y="-216.8" font-family="Helvetica,sans-Serif" font-size="14.00" fill="#000000">0, 0, 0, 0, 0, 0, 0, 0, 0, 0, 0, 0, 0, 0</text>
<text text-anchor="middle" x="1151" y="-201.8" font-family="Helvetica,sans-Serif" font-size="14.00" fill="#000000">3, 5, 5, 4, 3, 1, 0, 0, 0, 0, 0, 0, 0, 0</text>
<text text-anchor="middle" x="1151" y="-186.8" font-family="Helvetica,sans-Serif" font-size="14.00" fill="#000000">0, 0, 0, 0, 0, 0, 0, 0, 0, 0, 0, 0, 0, 0</text>
<text text-anchor="middle" x="1151" y="-171.8" font-family="Helvetica,sans-Serif" font-size="14.00" fill="#000000">0, 0, 0, 0, 0, 0, 0, 0, 0, 0, 0, 0, 0]</text>
</g>
<!-- 8&#45;&gt;9 -->
<g id="edge9" class="edge">
<title>8&#45;&gt;9</title>
<path fill="none" stroke="#000000" d="M1151,-342.9828C1151,-334.5138 1151,-325.8207 1151,-317.224"/>
<polygon fill="#000000" stroke="#000000" points="1154.5001,-317.1957 1151,-307.1958 1147.5001,-317.1958 1154.5001,-317.1957"/>
</g>
<!-- 12 -->
<g id="node13" class="node">
<title>12</title>
<path fill="none" stroke="#000000" d="M1594,-307C1594,-307 1404,-307 1404,-307 1398,-307 1392,-301 1392,-295 1392,-295 1392,-176 1392,-176 1392,-170 1398,-164 1404,-164 1404,-164 1594,-164 1594,-164 1600,-164 1606,-170 1606,-176 1606,-176 1606,-295 1606,-295 1606,-301 1600,-307 1594,-307"/>
<text text-anchor="middle" x="1499" y="-291.8" font-family="Helvetica,sans-Serif" font-size="14.00" fill="#000000">Post_hour &lt;= 4.5</text>
<text text-anchor="middle" x="1499" y="-276.8" font-family="Helvetica,sans-Serif" font-size="14.00" fill="#000000">gini = 0.616</text>
<text text-anchor="middle" x="1499" y="-261.8" font-family="Helvetica,sans-Serif" font-size="14.00" fill="#000000">samples = 17</text>
<text text-anchor="middle" x="1499" y="-246.8" font-family="Helvetica,sans-Serif" font-size="14.00" fill="#000000">value = [0, 0, 0, 0, 0, 0, 0, 0, 0, 0, 0, 0, 0, 0</text>
<text text-anchor="middle" x="1499" y="-231.8" font-family="Helvetica,sans-Serif" font-size="14.00" fill="#000000">0, 0, 0, 0, 0, 0, 0, 0, 0, 0, 0, 0, 0, 0</text>
<text text-anchor="middle" x="1499" y="-216.8" font-family="Helvetica,sans-Serif" font-size="14.00" fill="#000000">0, 0, 0, 0, 0, 0, 0, 0, 0, 0, 0, 0, 0, 1</text>
<text text-anchor="middle" x="1499" y="-201.8" font-family="Helvetica,sans-Serif" font-size="14.00" fill="#000000">5, 9, 2, 0, 0, 0, 0, 0, 0, 0, 0, 0, 0, 0</text>
<text text-anchor="middle" x="1499" y="-186.8" font-family="Helvetica,sans-Serif" font-size="14.00" fill="#000000">0, 0, 0, 0, 0, 0, 0, 0, 0, 0, 0, 0, 0, 0</text>
<text text-anchor="middle" x="1499" y="-171.8" font-family="Helvetica,sans-Serif" font-size="14.00" fill="#000000">0, 0, 0, 0, 0, 0, 0, 0, 0, 0, 0, 0, 0]</text>
</g>
<!-- 8&#45;&gt;12 -->
<g id="edge12" class="edge">
<title>8&#45;&gt;12</title>
<path fill="none" stroke="#000000" d="M1258.251,-359.3335C1297.7051,-339.0396 1342.556,-315.9698 1382.7647,-295.2877"/>
<polygon fill="#000000" stroke="#000000" points="1384.512,-298.3249 1391.8037,-290.6383 1381.3101,-292.1 1384.512,-298.3249"/>
</g>
<!-- 10 -->
<g id="node11" class="node">
<title>10</title>
<path fill="none" stroke="#000000" d="M1130,-128C1130,-128 940,-128 940,-128 934,-128 928,-122 928,-116 928,-116 928,-12 928,-12 928,-6 934,0 940,0 940,0 1130,0 1130,0 1136,0 1142,-6 1142,-12 1142,-12 1142,-116 1142,-116 1142,-122 1136,-128 1130,-128"/>
<text text-anchor="middle" x="1035" y="-112.8" font-family="Helvetica,sans-Serif" font-size="14.00" fill="#000000">gini = 0.79</text>
<text text-anchor="middle" x="1035" y="-97.8" font-family="Helvetica,sans-Serif" font-size="14.00" fill="#000000">samples = 18</text>
<text text-anchor="middle" x="1035" y="-82.8" font-family="Helvetica,sans-Serif" font-size="14.00" fill="#000000">value = [0, 0, 0, 0, 0, 0, 0, 0, 0, 0, 0, 0, 0, 0</text>
<text text-anchor="middle" x="1035" y="-67.8" font-family="Helvetica,sans-Serif" font-size="14.00" fill="#000000">0, 0, 0, 0, 0, 0, 0, 0, 0, 0, 0, 0, 0, 0</text>
<text text-anchor="middle" x="1035" y="-52.8" font-family="Helvetica,sans-Serif" font-size="14.00" fill="#000000">0, 0, 0, 0, 0, 0, 0, 0, 0, 0, 0, 0, 0, 0</text>
<text text-anchor="middle" x="1035" y="-37.8" font-family="Helvetica,sans-Serif" font-size="14.00" fill="#000000">2, 5, 5, 2, 3, 1, 0, 0, 0, 0, 0, 0, 0, 0</text>
<text text-anchor="middle" x="1035" y="-22.8" font-family="Helvetica,sans-Serif" font-size="14.00" fill="#000000">0, 0, 0, 0, 0, 0, 0, 0, 0, 0, 0, 0, 0, 0</text>
<text text-anchor="middle" x="1035" y="-7.8" font-family="Helvetica,sans-Serif" font-size="14.00" fill="#000000">0, 0, 0, 0, 0, 0, 0, 0, 0, 0, 0, 0, 0]</text>
</g>
<!-- 9&#45;&gt;10 -->
<g id="edge10" class="edge">
<title>9&#45;&gt;10</title>
<path fill="none" stroke="#000000" d="M1102.4777,-163.7623C1096.4085,-154.7893 1090.197,-145.6059 1084.1188,-136.6195"/>
<polygon fill="#000000" stroke="#000000" points="1086.8428,-134.3997 1078.341,-128.0775 1081.0446,-138.3216 1086.8428,-134.3997"/>
</g>
<!-- 11 -->
<g id="node12" class="node">
<title>11</title>
<path fill="none" stroke="#000000" d="M1362,-128C1362,-128 1172,-128 1172,-128 1166,-128 1160,-122 1160,-116 1160,-116 1160,-12 1160,-12 1160,-6 1166,0 1172,0 1172,0 1362,0 1362,0 1368,0 1374,-6 1374,-12 1374,-12 1374,-116 1374,-116 1374,-122 1368,-128 1362,-128"/>
<text text-anchor="middle" x="1267" y="-112.8" font-family="Helvetica,sans-Serif" font-size="14.00" fill="#000000">gini = 0.444</text>
<text text-anchor="middle" x="1267" y="-97.8" font-family="Helvetica,sans-Serif" font-size="14.00" fill="#000000">samples = 3</text>
<text text-anchor="middle" x="1267" y="-82.8" font-family="Helvetica,sans-Serif" font-size="14.00" fill="#000000">value = [0, 0, 0, 0, 0, 0, 0, 0, 0, 0, 0, 0, 0, 0</text>
<text text-anchor="middle" x="1267" y="-67.8" font-family="Helvetica,sans-Serif" font-size="14.00" fill="#000000">0, 0, 0, 0, 0, 0, 0, 0, 0, 0, 0, 0, 0, 0</text>
<text text-anchor="middle" x="1267" y="-52.8" font-family="Helvetica,sans-Serif" font-size="14.00" fill="#000000">0, 0, 0, 0, 0, 0, 0, 0, 0, 0, 0, 0, 0, 0</text>
<text text-anchor="middle" x="1267" y="-37.8" font-family="Helvetica,sans-Serif" font-size="14.00" fill="#000000">1, 0, 0, 2, 0, 0, 0, 0, 0, 0, 0, 0, 0, 0</text>
<text text-anchor="middle" x="1267" y="-22.8" font-family="Helvetica,sans-Serif" font-size="14.00" fill="#000000">0, 0, 0, 0, 0, 0, 0, 0, 0, 0, 0, 0, 0, 0</text>
<text text-anchor="middle" x="1267" y="-7.8" font-family="Helvetica,sans-Serif" font-size="14.00" fill="#000000">0, 0, 0, 0, 0, 0, 0, 0, 0, 0, 0, 0, 0]</text>
</g>
<!-- 9&#45;&gt;11 -->
<g id="edge11" class="edge">
<title>9&#45;&gt;11</title>
<path fill="none" stroke="#000000" d="M1199.5223,-163.7623C1205.5915,-154.7893 1211.803,-145.6059 1217.8812,-136.6195"/>
<polygon fill="#000000" stroke="#000000" points="1220.9554,-138.3216 1223.659,-128.0775 1215.1572,-134.3997 1220.9554,-138.3216"/>
</g>
<!-- 13 -->
<g id="node14" class="node">
<title>13</title>
<path fill="none" stroke="#000000" d="M1594,-128C1594,-128 1404,-128 1404,-128 1398,-128 1392,-122 1392,-116 1392,-116 1392,-12 1392,-12 1392,-6 1398,0 1404,0 1404,0 1594,0 1594,0 1600,0 1606,-6 1606,-12 1606,-12 1606,-116 1606,-116 1606,-122 1600,-128 1594,-128"/>
<text text-anchor="middle" x="1499" y="-112.8" font-family="Helvetica,sans-Serif" font-size="14.00" fill="#000000">gini = 0.446</text>
<text text-anchor="middle" x="1499" y="-97.8" font-family="Helvetica,sans-Serif" font-size="14.00" fill="#000000">samples = 11</text>
<text text-anchor="middle" x="1499" y="-82.8" font-family="Helvetica,sans-Serif" font-size="14.00" fill="#000000">value = [0, 0, 0, 0, 0, 0, 0, 0, 0, 0, 0, 0, 0, 0</text>
<text text-anchor="middle" x="1499" y="-67.8" font-family="Helvetica,sans-Serif" font-size="14.00" fill="#000000">0, 0, 0, 0, 0, 0, 0, 0, 0, 0, 0, 0, 0, 0</text>
<text text-anchor="middle" x="1499" y="-52.8" font-family="Helvetica,sans-Serif" font-size="14.00" fill="#000000">0, 0, 0, 0, 0, 0, 0, 0, 0, 0, 0, 0, 0, 1</text>
<text text-anchor="middle" x="1499" y="-37.8" font-family="Helvetica,sans-Serif" font-size="14.00" fill="#000000">1, 8, 1, 0, 0, 0, 0, 0, 0, 0, 0, 0, 0, 0</text>
<text text-anchor="middle" x="1499" y="-22.8" font-family="Helvetica,sans-Serif" font-size="14.00" fill="#000000">0, 0, 0, 0, 0, 0, 0, 0, 0, 0, 0, 0, 0, 0</text>
<text text-anchor="middle" x="1499" y="-7.8" font-family="Helvetica,sans-Serif" font-size="14.00" fill="#000000">0, 0, 0, 0, 0, 0, 0, 0, 0, 0, 0, 0, 0]</text>
</g>
<!-- 12&#45;&gt;13 -->
<g id="edge13" class="edge">
<title>12&#45;&gt;13</title>
<path fill="none" stroke="#000000" d="M1499,-163.7623C1499,-155.3443 1499,-146.7412 1499,-138.2893"/>
<polygon fill="#000000" stroke="#000000" points="1502.5001,-138.0774 1499,-128.0775 1495.5001,-138.0775 1502.5001,-138.0774"/>
</g>
<!-- 14 -->
<g id="node15" class="node">
<title>14</title>
<path fill="none" stroke="#000000" d="M1826,-128C1826,-128 1636,-128 1636,-128 1630,-128 1624,-122 1624,-116 1624,-116 1624,-12 1624,-12 1624,-6 1630,0 1636,0 1636,0 1826,0 1826,0 1832,0 1838,-6 1838,-12 1838,-12 1838,-116 1838,-116 1838,-122 1832,-128 1826,-128"/>
<text text-anchor="middle" x="1731" y="-112.8" font-family="Helvetica,sans-Serif" font-size="14.00" fill="#000000">gini = 0.5</text>
<text text-anchor="middle" x="1731" y="-97.8" font-family="Helvetica,sans-Serif" font-size="14.00" fill="#000000">samples = 6</text>
<text text-anchor="middle" x="1731" y="-82.8" font-family="Helvetica,sans-Serif" font-size="14.00" fill="#000000">value = [0, 0, 0, 0, 0, 0, 0, 0, 0, 0, 0, 0, 0, 0</text>
<text text-anchor="middle" x="1731" y="-67.8" font-family="Helvetica,sans-Serif" font-size="14.00" fill="#000000">0, 0, 0, 0, 0, 0, 0, 0, 0, 0, 0, 0, 0, 0</text>
<text text-anchor="middle" x="1731" y="-52.8" font-family="Helvetica,sans-Serif" font-size="14.00" fill="#000000">0, 0, 0, 0, 0, 0, 0, 0, 0, 0, 0, 0, 0, 0</text>
<text text-anchor="middle" x="1731" y="-37.8" font-family="Helvetica,sans-Serif" font-size="14.00" fill="#000000">4, 1, 1, 0, 0, 0, 0, 0, 0, 0, 0, 0, 0, 0</text>
<text text-anchor="middle" x="1731" y="-22.8" font-family="Helvetica,sans-Serif" font-size="14.00" fill="#000000">0, 0, 0, 0, 0, 0, 0, 0, 0, 0, 0, 0, 0, 0</text>
<text text-anchor="middle" x="1731" y="-7.8" font-family="Helvetica,sans-Serif" font-size="14.00" fill="#000000">0, 0, 0, 0, 0, 0, 0, 0, 0, 0, 0, 0, 0]</text>
</g>
<!-- 12&#45;&gt;14 -->
<g id="edge14" class="edge">
<title>12&#45;&gt;14</title>
<path fill="none" stroke="#000000" d="M1596.0446,-163.7623C1609.3093,-153.9567 1622.9138,-143.8999 1636.1389,-134.1236"/>
<polygon fill="#000000" stroke="#000000" points="1638.3571,-136.8364 1644.3179,-128.0775 1634.196,-131.2074 1638.3571,-136.8364"/>
</g>
</g>
</svg>
